<svg width="12" height="12" viewBox="0 0 12 12" fill="none" xmlns="http://www.w3.org/2000/svg">
<g clip-path="url(#clip0_1101_236)">
<path d="M4.50006 10.0134C2.00006 10.7634 2.00006 8.7634 1.00006 8.5134M8.00006 11.5134V9.5784C8.01882 9.33998 7.98661 9.1003 7.90557 8.87529C7.82453 8.65029 7.69653 8.44511 7.53006 8.2734C9.10006 8.0984 10.7501 7.5034 10.7501 4.7734C10.7499 4.07531 10.4814 3.404 10.0001 2.8984C10.228 2.28765 10.2119 1.61257 9.95506 1.0134C9.95506 1.0134 9.36506 0.838397 8.00006 1.7534C6.85407 1.44281 5.64606 1.44281 4.50006 1.7534C3.13506 0.838397 2.54506 1.0134 2.54506 1.0134C2.28825 1.61257 2.27213 2.28765 2.50006 2.8984C2.01512 3.40775 1.74632 4.08513 1.75006 4.7884C1.75006 7.4984 3.40006 8.0934 4.97006 8.2884C4.80556 8.45838 4.67869 8.6611 4.59772 8.88336C4.51674 9.10561 4.48346 9.34243 4.50006 9.5784V11.5134" stroke="#1570EF" stroke-linecap="round" stroke-linejoin="round"/>
</g>
<defs>
<clipPath id="clip0_1101_236">
<rect width="12" height="12" fill="white"/>
</clipPath>
</defs>
</svg>
